<svg xmlns="http://www.w3.org/2000/svg" width="11" height="10">
    <path fill="#0C6BB6" fill-rule="evenodd" d="M10.484 10H3.953c-.285 0-.515-.249-.515-.555V7.222c0-.307.23-.555.515-.555.285 0 .516.248.516.555v1.667h5.5V1.111h-5.5v1.667c0 .307-.231.555-.516.555-.285 0-.515-.248-.515-.555V.556c0-.307.23-.556.515-.556h6.531c.285 0 .516.249.516.556v8.889c0 .306-.231.555-.516.555zM1.76 4.444h5.974c.285 0 .516.249.516.556 0 .307-.231.556-.516.556H1.76l.667.718a.588.588 0 0 1 0 .786.498.498 0 0 1-.365.162.498.498 0 0 1-.364-.162L.151 5.393l-.002-.002a.416.416 0 0 1-.032-.039l-.014-.02a.319.319 0 0 1-.016-.023l-.014-.025a.437.437 0 0 1-.034-.071l-.008-.025-.009-.027-.006-.025-.006-.027a.308.308 0 0 1-.004-.03l-.003-.024A.489.489 0 0 1 0 5.001V5v-.001l.003-.054.003-.024a.254.254 0 0 1 .004-.029l.006-.028.006-.025.009-.027.008-.025.011-.024a.272.272 0 0 1 .011-.025l.012-.023.014-.023.017-.025.013-.019.034-.041 1.547-1.666a.49.49 0 0 1 .729 0 .586.586 0 0 1 0 .785l-.667.718z"/>
</svg>