<svg xmlns="http://www.w3.org/2000/svg" width="37" height="36">
    <path fill="#0C6BB6" fill-rule="evenodd" d="M35.939 27.916a.505.505 0 0 1-.529.449l-.112-.003c-.8 0-1.543.498-1.85 1.24a2.043 2.043 0 0 0 .506 2.282.511.511 0 0 1 .054.695 9.045 9.045 0 0 1-1.463 1.464.5.5 0 0 1-.682-.058c-.538-.598-1.496-.823-2.24-.515a2.032 2.032 0 0 0-1.237 1.95.508.508 0 0 1-.448.524 8.843 8.843 0 0 1-2.035-.005.507.507 0 0 1-.444-.535 2.03 2.03 0 0 0-1.223-1.985c-.746-.317-1.714-.093-2.255.513a.499.499 0 0 1-.688.055 9.011 9.011 0 0 1-1.431-1.464.514.514 0 0 1 .055-.69 2.05 2.05 0 0 0 .506-2.262c-.317-.781-1.074-1.274-1.861-1.254-.259 0-.565-.191-.593-.449a9.223 9.223 0 0 1 .004-2.081.493.493 0 0 1 .522-.449c.884 0 1.656-.485 1.968-1.237a2.042 2.042 0 0 0-.506-2.282.514.514 0 0 1-.054-.696 9.038 9.038 0 0 1 1.463-1.463.501.501 0 0 1 .683.058c.538.599 1.499.821 2.239.516a2.037 2.037 0 0 0 1.238-1.952.508.508 0 0 1 .448-.524 8.935 8.935 0 0 1 2.035.006.505.505 0 0 1 .443.534 2.033 2.033 0 0 0 1.222 1.986c.748.316 1.717.092 2.256-.512a.498.498 0 0 1 .687-.056 9.064 9.064 0 0 1 1.433 1.463.513.513 0 0 1-.055.69 2.055 2.055 0 0 0-.506 2.263 2.008 2.008 0 0 0 1.873 1.253c.256 0 .552.193.581.451a9.214 9.214 0 0 1-.004 2.08zm-8.969-3.025c-1.079 0-1.957.888-1.957 1.98 0 1.091.878 1.98 1.957 1.98 1.079 0 1.957-.889 1.957-1.98 0-1.092-.878-1.98-1.957-1.98zm1.407-8.141c.076-.588.116-1.187.116-1.795 0-7.647-6.15-13.867-13.709-13.867-7.559 0-13.709 6.22-13.709 13.867 0 4.09 1.761 7.772 4.556 10.313.135-.098.269-.185.405-.259l4.25-2.346c.386-.213.625-.621.625-1.064v-1.574c-.331-.443-1.227-1.749-1.663-3.475a1.984 1.984 0 0 1-.72-1.534v-1.927c0-.472.171-.929.477-1.289V9.262c-.028-.281-.127-1.875 1.012-3.189.991-1.143 2.594-1.722 4.767-1.722 2.172 0 3.776.579 4.767 1.723 1.139 1.314 1.04 2.906 1.012 3.189v2.538c.306.359.477.817.477 1.288v1.928c0 .775-.44 1.461-1.121 1.788a11.13 11.13 0 0 1-1.406 2.786 9.225 9.225 0 0 1-.332.445v1.608c0 .461.254.877.662 1.084l.681.344c.054.2.044.416-.038.614-.145.35-.529.577-.98.58h-.03c-.796 0-1.46.59-1.556 1.396-.088.767-.09 1.549-.004 2.324.076.69.712 1.403 1.646 1.403h.047l.02.001a14.402 14.402 0 0 1-2.501.455l-.15.011c-.394.033-.791.054-1.194.054-.407 0-.808-.021-1.204-.055l-.146-.011a14.833 14.833 0 0 1-1.28-.177 14.534 14.534 0 0 1-3.576-1.145l-.076-.034a15.431 15.431 0 0 1-1.208-.649c-.301-.18-.596-.369-.883-.57-.089-.061-.176-.125-.263-.189a14.574 14.574 0 0 1-.788-.613c-.031-.026-.065-.047-.096-.074l-.479-.409.014-.013A14.991 14.991 0 0 1 0 14.955C0 6.709 6.632 0 14.784 0c8.151 0 14.784 6.709 14.784 14.955 0 .887-.078 1.756-.225 2.6a1.572 1.572 0 0 0-.966-.805z"/>
</svg>
